<?xml version="1.0" standalone="no"?>
<!DOCTYPE svg PUBLIC "-//W3C//DTD SVG 20010904//EN"
 "http://www.w3.org/TR/2001/REC-SVG-20010904/DTD/svg10.dtd">
<svg version="1.0" xmlns="http://www.w3.org/2000/svg"
 width="319.000000pt" height="319.000000pt" viewBox="0 0 319.000000 319.000000"
 preserveAspectRatio="xMidYMid meet">
<metadata>
Created by potrace 1.14, written by Peter Selinger 2001-2017
</metadata>
<g transform="translate(0.000000,319.000000) scale(0.100000,-0.100000)"
fill="#000000" stroke="none">
<path d="M671 1931 c-7 -5 -21 -6 -31 -4 -28 8 -134 -53 -176 -100 -55 -62
-84 -147 -80 -239 2 -78 32 -162 67 -194 35 -31 22 -37 -73 -31 -107 6 -125
10 -166 31 -45 23 -63 53 -51 84 l10 25 -31 -24 c-45 -34 -67 -75 -54 -97 15
-25 91 -60 149 -68 28 -4 111 -8 185 -9 109 -1 146 -6 192 -23 59 -21 172 -27
196 -9 6 5 12 7 12 3 0 -12 101 45 139 79 30 27 68 44 165 75 183 59 320 133
339 184 14 35 -28 71 -103 90 l-25 6 25 -12 c14 -6 40 -18 58 -26 68 -30 30
-87 -93 -141 -27 -12 -59 -26 -70 -31 -18 -8 -106 -34 -196 -58 l-37 -10 21
47 c22 49 29 177 12 216 -4 11 -9 22 -10 25 -7 28 -44 85 -78 119 -63 64 -128
94 -212 97 -39 2 -77 -1 -84 -5z m-43 -142 c17 -6 37 -19 42 -29 6 -10 10 -65
10 -122 0 -57 4 -109 9 -117 11 -18 45 -6 35 11 -6 10 -5 10 7 1 12 -10 17 -8
27 8 13 20 13 20 33 -5 16 -21 26 -25 47 -20 43 10 55 28 56 88 2 62 -4 67
-55 40 -17 -8 -36 -13 -42 -11 -7 2 6 11 28 20 66 27 70 32 67 67 -3 43 -18
60 -51 60 -34 0 -51 -17 -51 -51 0 -30 -25 -46 -46 -29 -9 8 -10 19 -3 40 21
58 142 77 185 29 15 -17 19 -40 21 -131 2 -111 9 -133 40 -121 23 9 4 -23 -20
-34 -27 -13 -67 1 -67 22 0 19 1 19 -51 -8 -49 -26 -64 -27 -98 -8 -17 9 -26
10 -34 2 -12 -12 -77 -15 -77 -3 0 4 -4 13 -9 21 -7 11 -14 9 -39 -9 -86 -64
-184 29 -112 105 12 13 51 36 85 50 60 26 63 29 61 59 -4 47 -16 66 -41 66
-38 0 -55 -11 -55 -34 0 -32 -22 -58 -43 -50 -22 8 -22 46 1 67 36 33 89 42
140 26z"/>
<path d="M573 1644 c-34 -17 -59 -49 -57 -74 1 -8 2 -20 3 -27 2 -23 37 -33
70 -22 33 12 38 22 40 92 2 53 -4 56 -56 31z"/>
<path d="M1602 1763 c-6 -11 -21 -47 -33 -79 -12 -33 -28 -65 -37 -71 -14 -11
-11 -13 16 -13 18 0 32 5 32 11 0 5 -4 7 -10 4 -12 -8 -13 -3 -1 28 8 19 15
23 39 19 32 -4 48 -32 29 -51 -8 -8 0 -11 28 -11 33 0 36 2 23 13 -9 6 -29 48
-46 91 -26 70 -31 77 -40 59z m11 -84 c-17 -17 -31 5 -21 31 l10 25 9 -24 c5
-14 6 -28 2 -32z"/>
<path d="M1714 1768 c-3 -4 0 -8 5 -8 7 0 11 -27 11 -70 0 -40 -4 -70 -10 -70
-5 0 -10 -4 -10 -9 0 -6 16 -9 35 -8 34 2 46 12 23 19 -6 2 -12 19 -13 36 -1
26 2 32 18 32 11 0 26 -8 33 -17 12 -16 13 -15 14 14 0 31 -1 32 -25 21 -28
-13 -34 -10 -40 20 -2 13 3 26 13 32 19 11 18 12 -21 14 -16 1 -31 -2 -33 -6z"/>
<path d="M1790 1775 c0 -9 31 -34 43 -35 4 0 7 7 7 15 0 8 -4 15 -9 15 -5 0
-16 3 -25 6 -9 3 -16 3 -16 -1z"/>
<path d="M1882 1773 c-6 -3 -9 -10 -5 -16 11 -17 12 -137 2 -137 -5 0 -9 -4
-9 -10 0 -5 14 -10 30 -10 17 0 30 5 30 11 0 5 -5 7 -11 4 -7 -5 -9 6 -7 31 4
49 17 48 46 -4 13 -23 30 -42 38 -42 19 0 18 3 -11 46 l-25 37 20 19 c23 22
24 28 7 52 -12 16 -78 29 -105 19z m86 -46 c-2 -16 -11 -23 -30 -25 -25 -3
-28 0 -28 27 0 33 16 43 43 29 11 -6 17 -18 15 -31z"/>
<path d="M2078 1765 c-43 -24 -56 -85 -28 -125 59 -83 187 -30 165 69 -13 60
-79 87 -137 56z m91 -21 c49 -63 7 -148 -64 -130 -47 12 -55 111 -11 141 30
22 52 18 75 -11z"/>
<path d="M2375 1704 c-15 -41 -34 -81 -42 -89 -13 -13 -10 -15 18 -15 25 0 29
3 20 14 -30 36 27 68 61 34 20 -20 20 -22 3 -34 -16 -12 -14 -13 18 -12 21 1
37 5 37 10 0 4 -3 8 -8 8 -4 0 -20 34 -36 75 -16 42 -32 78 -36 80 -4 3 -20
-29 -35 -71z m39 0 c10 -25 7 -32 -9 -30 -9 1 -15 5 -15 9 0 4 0 14 0 22 0 20
16 19 24 -1z"/>
<path d="M2530 1760 c-32 -32 -27 -42 38 -81 25 -14 32 -25 30 -42 -4 -32 -46
-35 -70 -5 l-19 23 3 -25 c4 -30 42 -42 79 -24 51 25 40 79 -20 104 -16 6 -32
18 -35 25 -11 31 46 44 64 15 12 -19 22 -8 14 14 -9 23 -60 20 -84 -4z"/>
<path d="M2663 1768 c-2 -5 0 -8 5 -8 6 0 10 -31 10 -70 0 -38 -4 -70 -9 -70
-5 0 -9 -4 -9 -9 0 -5 17 -9 37 -9 30 0 35 2 23 12 -16 12 -24 146 -8 146 4 0
8 4 8 9 0 11 -50 9 -57 -1z"/>
<path d="M2804 1743 c-9 -21 -22 -56 -30 -77 -8 -22 -19 -45 -25 -53 -9 -10
-6 -13 15 -13 14 0 26 5 26 10 0 6 -4 10 -10 10 -6 0 -6 9 -1 23 5 12 14 21
20 20 6 -2 11 2 11 7 0 6 -4 10 -10 10 -6 0 -5 10 2 25 l11 25 12 -23 c6 -12
7 -23 3 -25 -4 -2 -8 -8 -8 -13 0 -6 5 -7 10 -4 14 9 30 -37 18 -52 -7 -9 -1
-11 21 -11 30 1 40 11 22 22 -4 3 -20 39 -36 81 -15 41 -29 75 -31 75 -2 0
-11 -17 -20 -37z"/>
<path d="M2938 1703 c3 -48 0 -78 -8 -88 -10 -13 -8 -15 14 -15 14 0 26 5 26
10 0 6 -3 10 -8 10 -4 0 -8 27 -9 60 -1 33 3 60 8 60 5 0 9 -4 9 -8 0 -5 8
-17 18 -28 9 -10 30 -38 46 -62 16 -23 30 -41 32 -39 2 1 4 38 5 80 1 42 6 77
10 77 5 0 9 4 9 9 0 4 -10 7 -22 6 -33 -4 -34 -4 -20 -14 9 -5 12 -24 10 -56
l-3 -48 -47 60 c-63 81 -74 79 -70 -14z"/>
<path d="M3121 1767 c-14 -14 -14 -30 1 -45 17 -17 47 3 41 27 -6 24 -27 33
-42 18z"/>
<path d="M1258 1718 c5 -5 16 -8 23 -6 8 3 3 7 -10 11 -17 4 -21 3 -13 -5z"/>
<path d="M1307 1709 c7 -7 15 -10 18 -7 3 3 -2 9 -12 12 -14 6 -15 5 -6 -5z"/>
<path d="M2273 1682 c-34 -5 -28 -21 7 -20 17 1 30 5 30 9 0 12 -12 15 -37 11z"/>
<path d="M1528 1487 c3 -37 7 -43 28 -45 13 -1 24 3 24 8 0 5 -7 7 -15 4 -11
-5 -15 1 -16 20 -2 44 -4 49 -14 53 -6 2 -9 -14 -7 -40z"/>
<path d="M1560 1526 c0 -3 6 -11 13 -18 7 -7 22 -26 35 -42 15 -20 22 -24 22
-12 0 17 -48 76 -62 76 -4 0 -8 -2 -8 -4z"/>
<path d="M1620 1519 c0 -5 5 -7 10 -4 6 3 10 8 10 11 0 2 -4 4 -10 4 -5 0 -10
-5 -10 -11z"/>
<path d="M1660 1520 c-12 -7 -9 -14 18 -41 23 -23 32 -27 32 -15 0 9 -9 21
-20 28 -26 16 -26 32 0 25 11 -3 18 -1 14 4 -7 12 -25 11 -44 -1z"/>
<path d="M1726 1498 c3 -55 4 -58 12 -58 4 0 7 20 7 45 0 25 -5 45 -10 45 -6
0 -10 -15 -9 -32z"/>
<path d="M1780 1519 c0 -5 5 -7 10 -4 6 3 10 8 10 11 0 2 -4 4 -10 4 -5 0 -10
-5 -10 -11z"/>
<path d="M1810 1485 c0 -25 5 -45 10 -45 6 0 10 20 10 45 0 25 -4 45 -10 45
-5 0 -10 -20 -10 -45z"/>
<path d="M1845 1489 c1 -38 10 -58 21 -46 4 4 2 12 -4 20 -7 8 -7 18 -2 27 13
20 12 27 -3 33 -9 3 -12 -7 -12 -34z"/>
<path d="M1903 1515 c-17 -34 -24 -75 -13 -75 6 0 9 4 5 9 -3 5 -1 12 4 16 6
3 8 13 5 23 -5 14 -3 13 10 -3 9 -11 14 -25 12 -32 -3 -7 1 -13 9 -13 18 0 18
5 -4 55 -16 36 -19 38 -28 20z"/>
<path d="M1968 1504 c4 -22 6 -24 14 -10 9 16 3 36 -11 36 -5 0 -6 -12 -3 -26z"/>
<path d="M2020 1516 c0 -9 5 -16 10 -16 6 0 10 4 10 9 0 6 -4 13 -10 16 -5 3
-10 -1 -10 -9z"/>
<path d="M2062 1518 c-23 -23 -8 -78 20 -78 5 0 1 11 -8 25 -16 24 -16 27 1
45 19 21 7 28 -13 8z"/>
<path d="M2105 1520 c3 -5 8 -10 11 -10 2 0 4 5 4 10 0 6 -5 10 -11 10 -5 0
-7 -4 -4 -10z"/>
<path d="M2142 1490 c1 -56 15 -60 20 -5 2 30 -1 45 -9 45 -7 0 -12 -15 -11
-40z"/>
<path d="M2180 1520 c0 -5 5 -10 11 -10 5 0 7 5 4 10 -3 6 -8 10 -11 10 -2 0
-4 -4 -4 -10z"/>
<path d="M2234 1515 c-7 -19 3 -35 23 -35 11 0 14 -6 10 -21 -4 -16 -3 -18 9
-8 20 17 17 28 -10 40 -14 7 -22 17 -19 25 3 8 2 14 -1 14 -4 0 -9 -7 -12 -15z"/>
<path d="M2267 1519 c7 -7 15 -10 18 -7 3 3 -2 9 -12 12 -14 6 -15 5 -6 -5z"/>
<path d="M2305 1484 c0 -38 2 -41 27 -42 15 0 30 3 32 7 3 4 -4 7 -16 7 -12
-1 -23 5 -25 12 -3 6 2 12 11 12 8 0 18 5 21 11 4 6 0 9 -8 7 -9 -2 -15 2 -14
7 1 6 8 9 15 9 6 -1 12 2 12 7 0 4 -12 7 -27 6 -26 -2 -28 -5 -28 -43z"/>
<path d="M2385 1485 c0 -28 4 -45 12 -45 6 0 10 9 8 20 -2 11 0 20 5 20 5 0
12 -9 15 -20 3 -11 11 -20 16 -20 6 0 6 7 -1 19 -5 11 -7 27 -4 36 7 18 -10
35 -36 35 -11 0 -15 -11 -15 -45z m37 20 c0 -5 -5 -11 -11 -13 -6 -2 -11 4
-11 13 0 9 5 15 11 13 6 -2 11 -8 11 -13z"/>
<path d="M2466 1493 c23 -56 28 -57 45 -8 9 25 13 45 9 45 -5 0 -12 -14 -15
-32 l-7 -32 -13 25 c-7 13 -11 27 -9 31 3 5 -2 8 -10 8 -13 0 -13 -4 0 -37z"/>
<path d="M2546 1488 c0 -23 4 -43 10 -45 5 -2 8 16 8 39 -1 23 -5 43 -10 45
-5 2 -9 -16 -8 -39z"/>
<path d="M2599 1517 c-26 -20 -9 -76 24 -77 5 0 1 7 -7 16 -26 26 -13 72 18
61 9 -4 16 -2 16 3 0 14 -32 12 -51 -3z"/>
<path d="M2676 1518 c4 -7 7 -27 6 -46 -2 -21 1 -31 8 -27 5 3 10 24 10 46 0
29 -4 39 -16 39 -9 0 -12 -5 -8 -12z"/>
<path d="M2715 1520 c3 -5 11 -10 16 -10 6 0 7 5 4 10 -3 6 -11 10 -16 10 -6
0 -7 -4 -4 -10z"/>
<path d="M2760 1520 c-13 -9 -12 -13 8 -29 12 -11 22 -24 22 -30 0 -15 -27
-14 -33 2 -4 9 -6 9 -6 0 -1 -17 16 -25 39 -18 26 8 26 31 0 45 -26 14 -26 34
0 27 11 -3 18 -1 14 4 -7 12 -25 11 -44 -1z"/>
<path d="M2850 1485 c0 -25 5 -45 10 -45 6 0 10 20 10 45 0 25 -4 45 -10 45
-5 0 -10 -20 -10 -45z"/>
<path d="M2900 1520 c0 -5 7 -7 16 -3 14 5 16 0 12 -36 -2 -25 0 -40 7 -38 5
2 10 22 10 45 1 37 -2 42 -22 42 -13 0 -23 -4 -23 -10z"/>
<path d="M2960 1519 c0 -5 5 -7 10 -4 6 3 10 8 10 11 0 2 -4 4 -10 4 -5 0 -10
-5 -10 -11z"/>
<path d="M2992 1485 c0 -39 3 -45 22 -44 11 0 15 3 9 6 -8 2 -13 22 -13 44 0
21 -4 39 -10 39 -5 0 -9 -20 -8 -45z"/>
<path d="M3040 1512 c20 -16 21 -21 10 -41 -10 -19 -9 -23 2 -19 21 7 22 50 2
65 -27 20 -39 15 -14 -5z"/>
<path d="M1781 1484 c0 -11 3 -14 6 -6 3 7 2 16 -1 19 -3 4 -6 -2 -5 -13z"/>
<path d="M1990 1496 c0 -4 10 -20 21 -34 20 -25 21 -25 17 -5 -3 12 -3 24 1
26 3 2 1 3 -5 1 -6 -1 -17 3 -23 9 -6 6 -11 7 -11 3z"/>
<path d="M2170 1491 c0 -6 5 -13 10 -16 6 -3 10 1 10 9 0 9 -4 16 -10 16 -5 0
-10 -4 -10 -9z"/>
<path d="M2710 1490 c0 -5 5 -10 10 -10 6 0 10 5 10 10 0 6 -4 10 -10 10 -5 0
-10 -4 -10 -10z"/>
<path d="M1653 1460 c2 -8 12 -16 23 -17 13 -2 15 -1 4 4 -8 3 -19 11 -23 17
-6 7 -7 6 -4 -4z"/>
<path d="M1770 1450 c-9 -6 -10 -10 -3 -10 6 0 15 5 18 10 8 12 4 12 -15 0z"/>
<path d="M1960 1450 c0 -5 5 -10 10 -10 6 0 10 5 10 10 0 6 -4 10 -10 10 -5 0
-10 -4 -10 -10z"/>
<path d="M2105 1450 c-3 -5 -1 -10 4 -10 6 0 11 5 11 10 0 6 -2 10 -4 10 -3 0
-8 -4 -11 -10z"/>
<path d="M2180 1450 c-13 -8 -12 -10 3 -10 9 0 17 5 17 10 0 12 -1 12 -20 0z"/>
<path d="M2230 1450 c0 -5 5 -10 11 -10 5 0 7 5 4 10 -3 6 -8 10 -11 10 -2 0
-4 -4 -4 -10z"/>
<path d="M2640 1450 c0 -5 5 -10 10 -10 6 0 10 5 10 10 0 6 -4 10 -10 10 -5 0
-10 -4 -10 -10z"/>
<path d="M2715 1450 c-3 -5 1 -10 9 -10 9 0 16 5 16 10 0 6 -4 10 -9 10 -6 0
-13 -4 -16 -10z"/>
<path d="M2885 1450 c-3 -5 -2 -10 4 -10 5 0 13 5 16 10 3 6 2 10 -4 10 -5 0
-13 -4 -16 -10z"/>
<path d="M2337 1365 c-2 -5 -4 -32 -3 -60 l1 -50 140 0 140 0 0 60 0 60 -137
0 c-84 0 -139 -4 -141 -10z m213 -50 c0 -20 -13 -25 -30 -13 -12 8 -11 9 3 4
15 -5 17 -2 12 15 -5 15 -4 19 4 15 6 -4 11 -13 11 -21z m-166 -15 c-6 -6 -10
-3 -10 10 0 13 4 16 10 10 7 -7 7 -13 0 -20z m31 9 c-10 -16 7 -10 19 7 10 13
12 13 12 -4 0 -25 -38 -24 -42 1 -1 9 2 15 7 11 5 -3 7 -10 4 -15z m92 6 c-7
-7 -14 -9 -15 -4 -2 6 -10 5 -18 -2 -11 -9 -14 -8 -14 2 0 9 12 15 29 15 24 1
27 -1 18 -11z m66 0 c4 -8 3 -16 -1 -19 -4 -3 -9 4 -9 15 -2 23 3 25 10 4z"/>
<path d="M2102 1332 c-10 -3 -8 -8 5 -19 17 -14 17 -14 -2 -8 -11 3 -16 2 -11
-2 10 -10 126 -11 126 0 0 4 5 7 11 7 5 0 7 -5 3 -12 -4 -7 -3 -8 4 -4 27 17
8 26 -52 26 -35 0 -66 4 -68 9 -1 4 -9 6 -16 3z"/>
<path d="M2288 1323 c-20 -5 -23 -18 -8 -28 6 -3 10 0 10 7 0 9 3 9 10 -2 8
-12 10 -11 10 8 0 12 -1 21 -2 21 -2 -1 -11 -3 -20 -6z"/>
</g>
</svg>
